# xmcd
#
# Track frame offsets:
#	150
#	15609
#	30817
#	44886
#	62307
#	78866
#	95142
#	110614
#	129508
#	144892
#	161720
#	180637
#	209601
#
# Disc length: 3000 seconds
# Revision: 0
# Processed by: cddbd v1.5.2PL0 Copyright (c) Steve Scherf et al.
# Submitted via: dBpowerAMP V12.0
#
DISCID=aa0bb60d
DTITLE=Suburban Legends - Let's Be Friends... And Slay The Dragon Together
DYEAR=2008
DGENRE=Ska Punk
TTITLE0=Let's Be Friends
TTITLE1=Girls Got What I Want
TTITLE2=Together
TTITLE3=Polyester
TTITLE4=Fire
TTITLE5=Favorite Face
TTITLE6=Unbelieveable
TTITLE7=Getting Down To Business
TTITLE8=Villain
TTITLE9=Took My Breath Away
TTITLE10=Lucy
TTITLE11=Don't Wait
TTITLE12=Natasha
EXTD=
EXTT0=
EXTT1=
EXTT2=
EXTT3=
EXTT4=
EXTT5=
EXTT6=
EXTT7=
EXTT8=
EXTT9=
EXTT10=
EXTT11=
EXTT12=
PLAYORDER=
